<?xml version="1.0" encoding="UTF-8"?>
<svg version="1.1" xmlns="http://www.w3.org/2000/svg" width="142" height="236">
<path d="M0 0 C0.11099111 14.09898427 -0.20764655 28.14088074 -0.8046875 42.2265625 C-0.88966692 44.27826574 -0.97455483 46.32997277 -1.05935669 48.38168335 C-1.2362167 52.63219497 -1.41659658 56.88254057 -1.59912109 61.1328125 C-1.83268051 66.58647628 -2.0533686 72.04058357 -2.27113152 77.49489784 C-2.44140596 81.70891364 -2.62023304 85.92253413 -2.80151749 90.13608932 C-2.88674119 92.14947036 -2.96883744 94.16298628 -3.0477562 96.1766243 C-3.15809933 98.9692949 -3.28037505 101.76119282 -3.40576172 104.55322266 C-3.43597412 105.38422989 -3.46618652 106.21523712 -3.49731445 107.07142639 C-3.77168461 112.77168461 -3.77168461 112.77168461 -6 115 C-22.0723317 110.41197623 -34.90987805 102.61544573 -43.875 88.1875 C-52.04145293 73.08726629 -54.0384553 56.49630913 -49.59375 39.93896484 C-45.18944995 25.55617248 -35.60858484 13.96587237 -22.70703125 6.3984375 C-15.28969319 2.56668133 -8.41429349 -0.08945778 0 0 Z " fill="#0B090A" transform="translate(65,58)"/>
<path d="M0 0 C15.6098338 0.37988534 28.14494309 8.39571608 38.70703125 19.3671875 C50.01266401 32.34844215 52.89645399 48.23299016 52 65 C49.96889116 80.18167796 42.7532018 93.61376804 31.0234375 103.51171875 C23.98132718 108.69478048 14.10476517 115 5 115 C4.30580597 107.95169787 3.79510218 100.92688399 3.51928711 93.8503418 C3.46054665 92.42861412 3.46054665 92.42861412 3.40061951 90.97816467 C3.27352388 87.88528497 3.15034866 84.79226362 3.02734375 81.69921875 C2.9392976 79.53212156 2.85104239 77.36503286 2.7625885 75.19795227 C2.578555 70.67524774 2.39634358 66.1524749 2.21557617 61.62963867 C1.98405782 55.8382106 1.74903669 50.04693145 1.51279354 44.25569439 C1.33077438 39.78876268 1.15005733 35.32177909 0.96978951 30.85477638 C0.88354487 28.7189606 0.79702369 26.58315597 0.71021843 24.4473629 C0.58934466 21.46585202 0.4700923 18.48428072 0.35131836 15.50268555 C0.31548645 14.62516632 0.27965454 13.74764709 0.24273682 12.84353638 C0.07379443 8.55886478 -0.03914192 4.28915438 0 0 Z " fill="#0A090A" transform="translate(76,58)"/>
<path d="M0 0 C2.10813459 2.74283406 3.65999059 5.27518791 5.0625 8.4375 C12.38488702 23.30150718 24.83629923 36.82555148 40.69921875 42.26953125 C44.12650191 43.36505699 47.57268198 44.39212665 51.02392578 45.40917969 C53.94983308 46.28398765 56.85048341 47.22927542 59.75 48.1875 C60.67296875 48.49042969 61.5959375 48.79335937 62.546875 49.10546875 C65 50 65 50 67.015625 51.17578125 C71.85612228 53.18630276 77.96427287 49.74424709 82.63549805 48.14599609 C86.28638796 46.90156282 89.94150838 45.70175252 93.6328125 44.58203125 C102.42190956 41.87825733 109.99290526 39.19398477 117 33 C117.89976563 32.20851562 118.79953125 31.41703125 119.7265625 30.6015625 C128.73509411 22.1390025 136.40911734 11.96960885 140 0 C140.66 0 141.32 0 142 0 C142.20493908 4.47848185 142.3281889 8.95574479 142.4375 13.4375 C142.52547852 15.32758789 142.52547852 15.32758789 142.61523438 17.25585938 C142.7548393 24.89424306 142.11445507 29.44066512 136.86376953 35.15258789 C135.94120361 36.06705688 135.94120361 36.06705688 135 37 C134.37786621 37.69883301 133.75573242 38.39766602 133.11474609 39.11767578 C121.18894304 52.50165563 104.8800705 58.03867308 87.65576172 60.75830078 C82.26517115 61.70722623 78.39271362 63.67667881 74.015625 66.890625 C72 68 72 68 69.890625 67.7890625 C68 67 68 67 65.5 65.125 C60.07507919 61.36824234 53.05663564 60.52378968 46.671875 59.4296875 C31.17059209 56.63379401 17.95928047 49.31095238 7 38 C6.369729 37.39857178 5.73945801 36.79714355 5.09008789 36.17749023 C-0.25734353 30.41555018 -0.7513534 25.6202837 -0.61523438 17.90039062 C-0.55658203 16.59263672 -0.49792969 15.28488281 -0.4375 13.9375 C-0.40231402 12.58146146 -0.37038787 11.22533424 -0.34179688 9.86914062 C-0.25978943 6.57712764 -0.14505574 3.28973667 0 0 Z " fill="#00A1E4" transform="translate(0,147)"/>
<path d="M0 0 C0.52980469 0.37382813 1.05960938 0.74765625 1.60546875 1.1328125 C2.51296875 1.7515625 3.42046875 2.3703125 4.35546875 3.0078125 C10.39947917 8.71604456 12.67050871 14.79336348 12.98046875 22.9453125 C12.84221361 30.38343925 10.48350505 35.26052169 6.48046875 41.3828125 C0.52483632 47.07950439 -5.19302143 49.43650442 -13.45703125 49.6953125 C-22.19295223 49.31672438 -27.6414728 47.28019116 -33.76953125 41.0078125 C-38.92955067 34.70455525 -40.75756635 28.61537599 -40.33203125 20.5078125 C-39.20110023 12.14363519 -36.02819657 6.88049606 -29.4453125 1.609375 C-21.04582601 -4.43825527 -9.05788245 -5.52357011 0 0 Z " fill="#051316" transform="translate(84.39453125,2.8671875)"/>
<path d="M0 0 C3.25532652 3.25532652 6.26250672 6.41172076 9.25 9.875 C21.13637455 23.00846958 34.34512645 27.70087986 51.43041992 30.43969727 C56.92200249 31.38281797 60.82462984 32.70269163 65.5625 35.625 C68.24498232 37.25689007 68.24498232 37.25689007 71 38 C74.16517048 37.02897425 76.6025277 35.52312838 79.41796875 33.78515625 C83.75070505 31.34886129 88.39524898 30.82360415 93.25 30.0625 C111.68047699 26.97544431 125.74987083 19.59955016 136.77880859 4.21630859 C137.81178544 2.78065304 138.90132365 1.38602247 140 0 C140.66 0 141.32 0 142 0 C142 9.9 142 19.8 142 30 C137.38 30.33 132.76 30.66 128 31 C123.94939644 32.58003107 123.94939644 32.58003107 120.75 34.875 C113.71548759 39.29188364 107.63592152 41.47700701 99.44140625 42.6953125 C98.19460083 42.88130005 98.19460083 42.88130005 96.92260742 43.07104492 C95.26751519 43.30911808 93.61006989 43.53154689 91.95043945 43.7355957 C85.84821957 44.56917721 79.84009579 46.10573698 75.39990234 50.63061523 C74 52 74 52 72 52 C72 52.66 72 53.32 72 54 C68.18942967 52.21083831 64.92225657 49.88671926 61.51171875 47.4375 C55.88854297 44.21925943 49.55775758 43.55124829 43.25 42.625 C34.20539154 41.18702594 26.097925 39.46497746 18.6875 33.8125 C12.90285643 29.86136353 12.90285643 29.86136353 0 30 C0 20.1 0 10.2 0 0 Z " fill="#00A1E4" transform="translate(0,182)"/>
<path d="M0 0 C0.66 0 1.32 0 2 0 C2.33 1.32 2.66 2.64 3 4 C4.65 3.01 6.3 2.02 8 1 C8 2.65 8 4.3 8 6 C9.98 5.67 11.96 5.34 14 5 C13.34 6.98 12.68 8.96 12 11 C13.32 11.33 14.64 11.66 16 12 C15.01 13.32 14.02 14.64 13 16 C13.66 16.99 14.32 17.98 15 19 C14.01 19.33 13.02 19.66 12 20 C12 21.65 12 23.3 12 25 C10.35 25 8.7 25 7 25 C6.34 26.32 5.68 27.64 5 29 C3.68 27.68 2.36 26.36 1 25 C0.34 26.32 -0.32 27.64 -1 29 C-1.33 29 -1.66 29 -2 29 C-2 27.35 -2 25.7 -2 24 C-3.98 24.66 -5.96 25.32 -8 26 C-7.67 24.35 -7.34 22.7 -7 21 C-8.98 21 -10.96 21 -13 21 C-11.68 19.02 -10.36 17.04 -9 15 C-10.32 14.34 -11.64 13.68 -13 13 C-12.01 12.34 -11.02 11.68 -10 11 C-10.33 9.35 -10.66 7.7 -11 6 C-9.68 6 -8.36 6 -7 6 C-6.67 4.35 -6.34 2.7 -6 1 C-3.525 1.99 -3.525 1.99 -1 3 C-0.67 2.01 -0.34 1.02 0 0 Z " fill="#F6F5F6" transform="translate(69,12)"/>
<path d="M0 0 C1.98 0 3.96 0 6 0 C5.01 0.66 4.02 1.32 3 2 C3.99 3.65 4.98 5.3 6 7 C7.98 5.35 9.96 3.7 12 2 C12 4.97 12 7.94 12 11 C14.64 10.01 17.28 9.02 20 8 C19.67 8.928125 19.34 9.85625 19 10.8125 C17.85032996 13.92029291 17.85032996 13.92029291 18 17 C18 17.66 18 18.32 18 19 C16.35 19 14.7 19 13 19 C13.33 17.35 13.66 15.7 14 14 C12.35 14 10.7 14 9 14 C8.67 12.68 8.34 11.36 8 10 C6.02 10.99 6.02 10.99 4 12 C3.67 10.68 3.34 9.36 3 8 C2.34 8 1.68 8 1 8 C0.67 9.32 0.34 10.64 0 12 C-1.32 11.34 -2.64 10.68 -4 10 C-4.33 11.65 -4.66 13.3 -5 15 C-6.65 14.67 -8.3 14.34 -10 14 C-9.34 15.65 -8.68 17.3 -8 19 C-8.99 19.66 -9.98 20.32 -11 21 C-10.01 21.66 -9.02 22.32 -8 23 C-9.875 26.875 -9.875 26.875 -11 28 C-9.35 28.33 -7.7 28.66 -6 29 C-6 30.98 -6 32.96 -6 35 C-7.98 35.495 -7.98 35.495 -10 36 C-9.67 34.35 -9.34 32.7 -9 31 C-11.31 31 -13.62 31 -16 31 C-14.79618552 28.50638429 -13.54571278 26.31856917 -12 24 C-13.98 23.34 -15.96 22.68 -18 22 C-18 21.34 -18 20.68 -18 20 C-16.02 19.01 -14.04 18.02 -12 17 C-13.32 15.35 -14.64 13.7 -16 12 C-15.67 11.34 -15.34 10.68 -15 10 C-12.69 10.66 -10.38 11.32 -8 12 C-8 9.36 -8 6.72 -8 4 C-4.535 5.98 -4.535 5.98 -1 8 C-0.67 5.36 -0.34 2.72 0 0 Z " fill="#0E1719" transform="translate(68,4)"/>
<path d="M0 0 C3.63 0 7.26 0 11 0 C12.91312326 5.89879672 14 9.70230353 14 16 C10.04 16 6.08 16 2 16 C1.34 10.72 0.68 5.44 0 0 Z " fill="#DB1E24" transform="translate(105,96)"/>
<path d="M0 0 C3.3 0 6.6 0 10 0 C9.42371425 5.35122481 8.79283202 10.67669928 8 16 C4.04 16 0.08 16 -4 16 C-2.25 4.5 -2.25 4.5 0 0 Z " fill="#DB1E24" transform="translate(26,96)"/>
<path d="M0 0 C3.3 0 6.6 0 10 0 C10.08441199 5.48677955 9.92037377 10.59280411 9 16 C5.04 16 1.08 16 -3 16 C-2.19642857 4.88392857 -2.19642857 4.88392857 0 0 Z " fill="#DE1E24" transform="translate(45,96)"/>
<path d="M0 0 C0.66 0 1.32 0 2 0 C5.96696225 5.78515329 5.92948742 12.18939219 5 19 C3.65779664 22.05226987 2.37372514 23.5697576 0 26 C-0.66 26 -1.32 26 -2 26 C-2.66 24.02 -3.32 22.04 -4 20 C-3.34 20 -2.68 20 -2 20 C-2 19.34 -2 18.68 -2 18 C-3.32 17.67 -4.64 17.34 -6 17 C-5.34 16.67 -4.68 16.34 -4 16 C-4.66 15.01 -5.32 14.02 -6 13 C-4.625 11 -4.625 11 -3 9 C-2.34 9 -1.68 9 -1 9 C-1 8.34 -1 7.68 -1 7 C-1.66 6.67 -2.32 6.34 -3 6 C-2.01 4.02 -1.02 2.04 0 0 Z " fill="#16282D" transform="translate(87,14)"/>
<path d="M0 0 C3.96 0 7.92 0 12 0 C11.14285714 10.71428571 11.14285714 10.71428571 9 15 C5.7 15 2.4 15 -1 15 C-0.67 10.05 -0.34 5.1 0 0 Z " fill="#E21D23" transform="translate(107,119)"/>
<path d="M0 0 C3.3 0 6.6 0 10 0 C11.11754936 5.23851264 12 9.62585403 12 15 C8.04 15 4.08 15 0 15 C0 10.05 0 5.1 0 0 Z " fill="#E91C24" transform="translate(87,97)"/>
<path d="M0 0 C3.96 0 7.92 0 12 0 C12.33 4.95 12.66 9.9 13 15 C10.03 15 7.06 15 4 15 C1.00137961 9.91538281 0.43785905 5.77973941 0 0 Z " fill="#E41D24" transform="translate(22,119)"/>
<path d="M0 0 C0.99 0 1.98 0 3 0 C3.33 1.32 3.66 2.64 4 4 C4.66 3.01 5.32 2.02 6 1 C7.32 1.66 8.64 2.32 10 3 C10 3.66 10 4.32 10 5 C10.99 5 11.98 5 13 5 C13.66 4.34 14.32 3.68 15 3 C16.65 3.66 18.3 4.32 20 5 C18.73721868 8.78834395 17.47887048 9.22011278 14 11 C9.70961147 12.57314246 5.04089905 12.81850417 0.76953125 11.10546875 C-1.19031738 10.12381005 -3.1056466 9.10216925 -5 8 C-5 7.34 -5 6.68 -5 6 C-4.360625 5.7525 -3.72125 5.505 -3.0625 5.25 C-0.81258459 4.18437567 -0.81258459 4.18437567 -0.25 1.875 C-0.1675 1.25625 -0.085 0.6375 0 0 Z " fill="#121E20" transform="translate(64,36)"/>
<path d="M0 0 C3.96 0 7.92 0 12 0 C12.09038099 5.15171623 11.84681133 9.91913204 11 15 C8.03 15 5.06 15 2 15 C1.66223316 13.2508503 1.32996329 11.50063855 1 9.75 C0.814375 8.77546875 0.62875 7.8009375 0.4375 6.796875 C0 4 0 4 0 0 Z " fill="#E51D24" transform="translate(42,119)"/>
<path d="M0 0 C3.63 0 7.26 0 11 0 C10.85930804 2.12534659 10.71229079 4.25027529 10.5625 6.375 C10.48128906 7.55835937 10.40007812 8.74171875 10.31640625 9.9609375 C10 13 10 13 9 15 C6.03 15 3.06 15 0 15 C0 10.05 0 5.1 0 0 Z " fill="#E71D24" transform="translate(88,119)"/>
<path d="M0 0 C9.76882787 3.64350877 17.86646185 9.53768533 24 18 C24.33 18.99 24.66 19.98 25 21 C21.7 21 18.4 21 15 21 C14.62488281 20.27554688 14.24976562 19.55109375 13.86328125 18.8046875 C9.98008404 11.46867262 5.99281512 5.770859 0 0 Z " fill="#CF2024" transform="translate(87,69)"/>
<path d="M0 0 C0.66 0.33 1.32 0.66 2 1 C1.38125 1.2475 0.7625 1.495 0.125 1.75 C-2.44582459 3.26224976 -2.73043843 4.34802694 -4 7 C-5.48251559 9.28823058 -7.02183351 11.53187692 -8.5625 13.78125 C-10.20822955 16.23143959 -10.20822955 16.23143959 -12 20 C-14.97 20 -17.94 20 -21 20 C-17.97291471 11.0291066 -9.92608635 5.54782573 -2.06640625 0.8984375 C-1.38449219 0.60195312 -0.70257813 0.30546875 0 0 Z " fill="#D52024" transform="translate(51,70)"/>
<path d="M0 0 C2.97 0 5.94 0 9 0 C5.14426034 7.71147931 -0.81606958 13.36037827 -8 18 C-8.66 17.67 -9.32 17.34 -10 17 C-9.61328125 16.443125 -9.2265625 15.88625 -8.828125 15.3125 C-5.44562948 10.35597191 -2.56446863 5.42483749 0 0 Z " fill="#CB2024" transform="translate(103,141)"/>
<path d="M0 0 C2.64 0 5.28 0 8 0 C8.53109375 0.95261719 9.0621875 1.90523437 9.609375 2.88671875 C10.32268231 4.15377779 11.03623716 5.42069751 11.75 6.6875 C12.27207031 7.62625977 12.27207031 7.62625977 12.8046875 8.58398438 C14.92706342 12.33744549 17.19727565 15.69859272 20 19 C11.77514578 16.23879894 5.04807974 8.89904231 0 2 C0 1.34 0 0.68 0 0 Z " fill="#CE2024" transform="translate(30,141)"/>
<path d="M0 0 C1.65 0 3.3 0 5 0 C5 0.66 5 1.32 5 2 C4.34 2 3.68 2 3 2 C3.60183749 4.02045442 4.27306096 6.02111039 5 8 C5.66 8.33 6.32 8.66 7 9 C6.34 9 5.68 9 5 9 C4.67 9.66 4.34 10.32 4 11 C4 10.34 4 9.68 4 9 C2.35 8.67 0.7 8.34 -1 8 C-1.99 9.485 -1.99 9.485 -3 11 C-3 10.34 -3 9.68 -3 9 C-3.66 9 -4.32 9 -5 9 C-4.67 7.35 -4.34 5.7 -4 4 C-2.35 4.33 -0.7 4.66 1 5 C0.67 3.35 0.34 1.7 0 0 Z " fill="#0F2025" transform="translate(80,32)"/>
<path d="M0 0 C0.33 0 0.66 0 1 0 C1 1.98 1 3.96 1 6 C3.97 5.01 6.94 4.02 10 3 C9.67 3.928125 9.34 4.85625 9 5.8125 C7.85032996 8.92029291 7.85032996 8.92029291 8 12 C8 12.66 8 13.32 8 14 C6.35 14 4.7 14 3 14 C3.33 12.35 3.66 10.7 4 9 C2.35 9 0.7 9 -1 9 C-0.67 7.02 -0.34 5.04 0 3 C-0.66 2.67 -1.32 2.34 -2 2 C-1.34 1.34 -0.68 0.68 0 0 Z " fill="#0A1113" transform="translate(78,9)"/>
<path d="M0 0 C0.33 0 0.66 0 1 0 C1 3.63 1 7.26 1 11 C-1.64 11 -4.28 11 -7 11 C-5.5129879 6.40378078 -3.20187872 3.53027653 0 0 Z " fill="#BD2224" transform="translate(55,79)"/>
<path d="M0 0 C3.39417765 3.12621626 5.6062718 5.56541027 7 10 C4.69 10 2.38 10 0 10 C0 6.7 0 3.4 0 0 Z " fill="#CE2024" transform="translate(86,80)"/>
<path d="M0 0 C0 0.99 0 1.98 0 3 C1.65 3.33 3.3 3.66 5 4 C5 5.98 5 7.96 5 10 C3.68 10.33 2.36 10.66 1 11 C1.33 9.35 1.66 7.7 2 6 C-0.31 6 -2.62 6 -5 6 C-3.35 4.02 -1.7 2.04 0 0 Z " fill="#060B0C" transform="translate(57,29)"/>
<path d="M0 0 C6.75 -0.125 6.75 -0.125 9 1 C7.95125002 3.62187494 7.35068687 4.79371361 4.875 6.25 C4.25625 6.4975 3.6375 6.745 3 7 C2.01 4.69 1.02 2.38 0 0 Z " fill="#0096D1" transform="translate(70,5)"/>
<path d="M0 0 C0 2.64 0 5.28 0 8 C-2.31 7.67 -4.62 7.34 -7 7 C-3.86206897 0 -3.86206897 0 0 0 Z " fill="#0093CC" transform="translate(60,8)"/>
<path d="M0 0 C-0.66 2.31 -1.32 4.62 -2 7 C-5.65316671 5.75023244 -6.78065836 5.32901247 -9 2 C-3.375 0 -3.375 0 0 0 Z " fill="#0096D1" transform="translate(69,5)"/>
<path d="M0 0 C0.66 0 1.32 0 2 0 C3.76462683 3.08809695 4 4.23312136 4 8 C1.69 7.67 -0.62 7.34 -3 7 C-2.01 4.69 -1.02 2.38 0 0 Z " fill="#0098D4" transform="translate(87,14)"/>
<path d="M0 0 C3.26460973 1.80412643 4.88929795 2.83394693 7 6 C4.69 6.66 2.38 7.32 0 8 C0 5.36 0 2.72 0 0 Z " fill="#009CDB" transform="translate(80,7)"/>
<path d="M0 0 C0 2.31 0 4.62 0 7 C-0.99 7.495 -0.99 7.495 -2 8 C-3.32 7.01 -4.64 6.02 -6 5 C-3.74193548 0 -3.74193548 0 0 0 Z " fill="#0097D3" transform="translate(92,24)"/>
<path d="M0 0 C2.31 0 4.62 0 7 0 C6.34 2.31 5.68 4.62 5 7 C3.29115995 5.37660195 1.62553283 3.70680947 0 2 C0 1.34 0 0.68 0 0 Z " fill="#0097D4" transform="translate(52,35)"/>
<path d="M0 0 C1.65 1.65 3.3 3.3 5 5 C2.64046906 7.35953094 1.22104383 7.49141413 -2 8 C-1.125 1.125 -1.125 1.125 0 0 Z " fill="#0098D4" transform="translate(52,16)"/>
<path d="M0 0 C0.33 2.31 0.66 4.62 1 7 C-1.9375 6.1875 -1.9375 6.1875 -5 5 C-5.33 4.01 -5.66 3.02 -6 2 C-2.25 0 -2.25 0 0 0 Z " fill="#0093CC" transform="translate(65,40)"/>
<path d="M0 0 C1.98 0.66 3.96 1.32 6 2 C4.63016497 5.16115776 4.0109362 5.9927092 1 8 C-0.35439668 5.29120665 -0.06501451 2.99066732 0 0 Z " fill="#0096D0" transform="translate(50,26)"/>
<path d="M0 0 C1.65 0 3.3 0 5 0 C4.42647107 3.87132028 2.51295648 6.08172796 0 9 C0 6.03 0 3.06 0 0 Z " fill="#BC2324" transform="translate(89,141)"/>
<path d="M0 0 C2.31 0 4.62 0 7 0 C6.1875 2.4375 6.1875 2.4375 5 5 C4.01 5.33 3.02 5.66 2 6 C1.34 4.02 0.68 2.04 0 0 Z " fill="#009BD9" transform="translate(83,34)"/>
<path d="M0 0 C1.68762851 1.6454378 3.3540349 3.31288577 5 5 C5 5.33 5 5.66 5 6 C2.36 6 -0.28 6 -3 6 C-1.125 1.125 -1.125 1.125 0 0 Z " fill="#0098D5" transform="translate(71,41)"/>
<path d="M0 0 C1.98 0.66 3.96 1.32 6 2 C5.67 2.99 5.34 3.98 5 5 C1.9375 6.1875 1.9375 6.1875 -1 7 C-0.67 4.69 -0.34 2.38 0 0 Z " fill="#009AD7" transform="translate(78,39)"/>
<path d="M0 0 C1.32 0 2.64 0 4 0 C4 2.31 4 4.62 4 7 C1.49962266 4.82575883 0.56371414 3.26954202 0 0 Z " fill="#E21E24" transform="translate(48,142)"/>
<path d="M0 0 C1.65 0 3.3 0 5 0 C5 0.66 5 1.32 5 2 C4.34 2 3.68 2 3 2 C3 2.99 3 3.98 3 5 C2.34 5 1.68 5 1 5 C0.67 3.35 0.34 1.7 0 0 Z " fill="#080A0B" transform="translate(80,32)"/>
</svg>
